# xmcd
#
# Track frame offsets:
#	150
#	14925
#	128925
#	166650
#
# Disc length: 3351 seconds
#
# Revision: 3
# Processed by: cddbd v1.4PL0 Copyright (c) Steve Scherf et al.
# Submitted via: EasyCDDAExtractor 5.0.6
#
DISCID=2f0d1504
DTITLE=Stevie Ray Vaughan - Live At Legends Feat. Buddy Guy
DYEAR=1989
DGENRE=Blues
TTITLE0=Still Call The Blues
TTITLE1=Louisiana Blues/Throw Your Love On Me So Strong
TTITLE2=Mary Had A Little Lamb
TTITLE3=Leave My Girl Alone
EXTD=
EXTT0=
EXTT1=
EXTT2=
EXTT3=
PLAYORDER=
